<?xml version="1.0" standalone="no"?>
<!DOCTYPE svg PUBLIC "-//W3C//DTD SVG 20010904//EN"
 "http://www.w3.org/TR/2001/REC-SVG-20010904/DTD/svg10.dtd">
<svg version="1.0" xmlns="http://www.w3.org/2000/svg"
 viewBox="0 0 512.000000 512.000000"
 preserveAspectRatio="xMidYMid meet">
<g transform="translate(0.000000,512.000000) scale(0.100000,-0.100000)"
fill="#000000" stroke="none">
<path d="M1805 4801 c-82 -37 -139 -130 -170 -281 -10 -47 -23 -89 -30 -95
-12 -10 -30 -104 -41 -213 -4 -34 -11 -65 -16 -68 -5 -3 -5 -11 1 -18 7 -8 -6
-30 -45 -76 -55 -66 -66 -90 -39 -90 11 0 4 -18 -27 -62 -59 -87 -126 -258
-101 -258 4 0 23 23 41 51 18 28 35 49 37 47 3 -2 -7 -32 -21 -66 -50 -125
-66 -208 -67 -347 -1 -89 3 -140 12 -160 l14 -30 8 25 9 25 -4 -25 c-3 -14 -9
-43 -15 -65 -6 -22 -11 -71 -11 -110 0 -47 -9 -97 -26 -150 -30 -93 -46 -250
-43 -415 3 -190 -16 -393 -45 -489 -14 -46 -26 -89 -26 -95 0 -7 -18 -22 -40
-35 -51 -29 -140 -110 -163 -150 l-18 -31 27 0 c20 0 24 -3 17 -12 -6 -7 -15
-28 -21 -46 -10 -30 -10 -31 7 -22 18 9 18 7 3 -33 -19 -52 -24 -283 -6 -280
7 1 14 -28 18 -80 4 -45 12 -100 18 -122 10 -37 12 -38 18 -15 5 23 9 20 40
-38 18 -35 50 -82 71 -106 l38 -42 -34 -13 c-101 -36 -141 -190 -68 -263 34
-34 104 -47 244 -48 l86 0 6 -40 c11 -85 50 -115 174 -137 99 -17 439 -13 504
6 47 14 87 58 103 112 l13 44 84 3 c46 2 104 -2 129 -9 28 -7 122 -11 252 -10
l207 2 7 -28 c14 -57 35 -85 82 -106 43 -20 63 -22 262 -22 257 0 328 11 378
61 25 25 32 40 32 71 l0 38 53 2 c151 6 207 27 233 89 23 54 10 108 -36 157
l-37 40 52 73 c91 127 152 342 143 507 -3 42 -3 76 -1 74 1 -2 10 -21 18 -43
l15 -39 -5 60 c-8 87 -21 127 -60 184 -25 38 -30 51 -18 51 9 0 -5 22 -38 58
-72 78 -132 174 -160 253 l-23 66 23 74 c30 98 37 223 18 315 -14 65 -14 76 1
115 27 71 23 282 -7 386 l-23 82 35 58 c46 75 70 160 71 250 1 40 4 73 7 73
12 0 -11 153 -38 244 -4 13 -1 16 7 11 19 -12 7 29 -50 162 -28 63 -50 118
-50 120 0 3 7 3 15 -1 25 -9 17 8 -35 80 -39 53 -50 77 -50 106 0 20 -4 39 -8
42 -5 3 -12 57 -15 121 -3 64 -10 121 -15 128 -5 7 -12 40 -16 75 -18 183
-100 323 -205 352 -65 17 -117 -2 -207 -76 -30 -24 -66 -47 -79 -50 -28 -7
-29 -7 -170 30 -227 60 -576 48 -829 -28 -58 -18 -68 -14 -141 52 -89 80 -161
99 -240 63z m144 -35 c15 -8 48 -31 72 -52 78 -65 119 -87 143 -76 45 21 85
33 176 53 120 26 419 37 530 20 110 -17 233 -49 249 -65 9 -10 19 -11 30 -6 9
5 28 11 42 14 14 3 39 16 57 28 17 13 52 38 77 57 85 61 155 53 224 -25 61
-69 86 -161 86 -311 0 -120 0 -122 18 -100 18 22 18 22 11 -17 -5 -30 -4 -37
6 -31 11 7 12 -6 7 -63 -4 -55 -2 -73 9 -83 8 -6 14 -18 14 -25 0 -8 -22 3
-55 29 -54 41 -65 60 -45 72 17 11 11 33 -11 40 -14 5 -18 12 -13 23 3 10 9
27 11 40 5 19 1 22 -29 22 l-35 0 -6 66 c-13 137 -53 226 -107 239 -32 8 -83
-25 -126 -81 l-31 -42 -54 47 c-30 26 -76 60 -104 75 l-50 27 55 -56 c30 -31
90 -81 133 -113 l78 -57 -31 -5 c-31 -5 -30 -6 61 -64 68 -44 88 -61 75 -66
-14 -5 -8 -15 36 -56 29 -27 90 -77 134 -111 74 -56 188 -172 179 -181 -2 -3
-19 5 -38 17 -19 11 -37 21 -41 21 -3 0 17 -28 45 -62 48 -60 119 -190 119
-218 0 -9 -8 -7 -22 7 -13 11 -34 26 -48 33 -22 12 -21 9 9 -25 46 -53 89
-149 96 -215 3 -30 2 -48 -1 -40 -4 8 -20 50 -36 93 -17 43 -32 76 -35 74 -2
-3 0 -14 6 -26 19 -35 71 -257 71 -303 0 -59 -26 -154 -56 -205 -13 -23 -54
-81 -91 -129 -65 -85 -66 -90 -10 -52 32 23 32 24 11 -56 -25 -95 -62 -176
-109 -237 -24 -30 -53 -75 -66 -100 -12 -24 -29 -53 -38 -64 -8 -11 3 -3 26
19 27 25 46 36 55 31 7 -5 10 -5 6 0 -4 4 0 14 10 22 10 9 11 11 2 7 -8 -4 2
12 24 35 48 54 99 162 125 265 12 44 23 81 25 83 10 10 31 -142 30 -222 0 -80
-5 -100 -38 -182 -79 -197 -174 -332 -308 -436 -134 -104 -268 -180 -416 -238
-42 -16 -78 -29 -80 -29 -2 0 8 15 21 33 42 56 106 177 93 177 -1 0 -32 -37
-69 -83 -36 -46 -85 -99 -109 -119 -49 -40 -168 -119 -168 -112 0 2 16 28 35
58 39 58 53 114 36 142 -9 16 -10 12 -11 -22 0 -52 -58 -137 -129 -187 l-49
-36 -6 33 c-8 44 -59 126 -139 224 -78 96 -96 129 -107 191 l-8 46 -1 -51 c-1
-66 30 -128 113 -222 79 -90 97 -127 104 -211 l5 -66 -22 27 c-12 15 -61 56
-110 92 -49 35 -98 77 -110 92 -27 34 -27 16 -2 -64 l18 -60 -62 49 c-146 115
-235 245 -242 357 -3 44 -16 79 -53 152 -54 106 -79 188 -81 265 l-1 50 -10
-40 c-23 -93 11 -229 82 -328 27 -38 40 -66 40 -89 0 -69 42 -182 94 -253 43
-57 39 -58 -50 -10 -307 166 -484 275 -562 348 l-56 52 26 -47 c15 -27 23 -48
18 -48 -18 0 -109 81 -143 128 -44 59 -65 115 -73 191 l-6 56 19 -30 c11 -16
28 -37 38 -45 18 -14 18 -14 2 10 -28 43 -50 158 -42 225 7 70 35 185 44 185
3 0 14 -19 24 -43 31 -77 102 -145 187 -181 33 -13 31 -9 -35 58 -121 124
-172 241 -159 360 l6 60 21 -30 c25 -35 104 -112 130 -126 10 -5 -3 17 -29 48
-55 68 -111 179 -119 238 -7 42 17 164 49 254 8 23 13 42 11 42 -7 0 -46 -81
-66 -135 l-18 -50 0 37 c-3 138 76 317 203 457 l31 35 -40 -29 c-58 -41 -95
-77 -95 -92 0 -7 -4 -13 -10 -13 -5 0 -10 9 -10 21 0 15 -5 19 -15 15 -8 -3
-15 -2 -15 2 0 25 153 220 209 268 14 12 53 38 86 58 33 20 52 36 42 36 -28 0
-85 -27 -138 -65 -27 -19 -49 -31 -49 -26 0 13 98 85 150 111 25 12 74 43 110
69 l65 46 -39 5 -39 5 82 43 c73 39 80 45 65 57 -16 11 -15 14 17 30 61 32
173 113 219 160 51 52 44 57 -23 15 -42 -27 -47 -28 -56 -12 -9 14 -10 13 -11
-10 0 -17 -11 -35 -31 -52 -38 -32 -45 -32 -53 -2 -8 34 -81 96 -112 96 -52 0
-116 -105 -131 -217 -4 -32 -10 -43 -22 -42 -33 3 -41 -2 -41 -25 0 -14 4 -36
9 -50 8 -21 6 -27 -15 -40 -13 -9 -24 -25 -24 -36 0 -16 -23 -38 -67 -64 -10
-5 -13 10 -13 66 1 70 1 72 16 48 l15 -25 -5 35 c-3 19 -8 49 -11 65 -4 24 0
19 19 -20 27 -55 35 -46 11 12 -8 19 -15 39 -15 44 0 5 7 9 15 9 11 0 15 13
15 53 1 143 67 287 155 335 28 16 101 15 134 -2z m1874 -2488 c1 -87 -3 -115
-26 -178 -15 -41 -29 -102 -31 -135 -7 -80 -32 -196 -53 -242 -9 -21 -17 -47
-18 -58 -7 -90 -53 -286 -120 -505 -71 -233 -95 -336 -95 -411 l0 -68 -57 20
c-110 39 -281 24 -372 -31 -46 -29 -32 -36 19 -10 50 25 157 50 219 50 58 0
164 -26 221 -55 117 -60 166 -180 104 -254 -14 -17 -29 -31 -33 -31 -4 0 -6
26 -4 58 3 46 -1 65 -19 96 -24 41 -58 70 -94 80 -15 5 -10 -5 22 -38 46 -49
61 -92 50 -150 -10 -51 -32 -65 -122 -73 l-78 -6 15 24 c45 69 18 172 -56 211
-15 9 -13 4 7 -21 34 -39 44 -91 29 -142 -16 -52 -43 -69 -114 -69 -51 0 -62
4 -87 28 -34 35 -47 91 -32 140 l11 36 -21 -21 c-25 -26 -36 -109 -18 -143 12
-23 12 -23 -30 -17 -24 3 -52 14 -63 25 -26 27 -33 96 -14 160 14 46 14 52 1
52 -8 0 -21 -15 -29 -32 l-14 -33 -1 30 c0 17 9 47 20 68 24 45 25 83 4 261
-26 224 -1 346 102 497 27 40 69 94 92 120 47 53 47 54 7 39 -47 -18 -24 11
51 65 39 28 81 58 95 68 13 10 -11 0 -53 -21 -86 -43 -86 -42 -21 53 l35 50
-59 -63 c-33 -34 -79 -94 -104 -134 -39 -62 -167 -213 -175 -205 -2 2 3 31 11
65 17 72 41 123 97 206 27 39 33 54 19 44 -61 -43 -126 -162 -140 -257 -5 -31
-9 -45 -10 -33 -1 21 -7 18 -62 -35 -130 -124 -236 -286 -254 -386 -4 -21 -10
-36 -12 -33 -3 3 -11 35 -19 71 -13 62 -13 69 6 105 11 22 49 75 83 117 35 43
76 96 91 118 42 59 -105 -99 -156 -167 l-42 -57 -31 87 c-18 48 -39 101 -48
117 l-17 30 6 -40 c4 -22 12 -61 19 -86 l11 -46 -55 60 c-31 32 -76 91 -100
131 -41 67 -148 206 -158 206 -3 0 9 -24 27 -52 34 -59 120 -225 120 -233 0
-3 -29 18 -65 46 -76 59 -115 112 -154 207 -16 37 -36 81 -45 97 l-17 30 7
-35 c3 -19 14 -61 24 -92 l18 -57 -47 47 c-26 26 -71 64 -101 85 -208 143
-281 197 -348 260 -58 55 -69 62 -44 30 51 -66 173 -175 269 -240 123 -85 162
-117 196 -164 l30 -41 -32 17 c-18 9 -35 14 -37 12 -3 -2 40 -46 96 -98 138
-128 145 -144 145 -329 0 -80 -4 -195 -9 -257 -8 -103 -7 -117 13 -179 25 -72
24 -100 -11 -191 -14 -37 -28 -58 -48 -68 -44 -23 -50 -20 -38 22 12 46 -2
101 -34 129 l-22 19 17 -27 c19 -31 22 -86 6 -121 -17 -37 -60 -57 -122 -57
-49 0 -58 3 -77 28 -30 37 -25 137 9 183 19 26 20 29 4 21 -47 -25 -75 -80
-75 -144 0 -34 6 -55 18 -70 l19 -20 -109 4 c-104 3 -109 5 -132 31 -45 53
-23 167 43 216 38 28 14 27 -28 -2 -54 -36 -80 -91 -76 -159 2 -32 0 -58 -3
-58 -12 0 -49 45 -60 75 -25 66 24 166 99 205 22 11 75 29 118 41 130 36 296
15 412 -52 l36 -21 -35 32 c-90 80 -329 101 -466 41 l-41 -19 -6 92 c-3 70
-13 115 -42 196 -69 196 -97 285 -130 415 -37 147 -54 262 -36 251 16 -10 15
-7 -23 107 -50 151 -81 376 -69 504 l6 62 27 -42 c15 -23 40 -55 56 -71 30
-30 206 -137 213 -130 2 2 -4 13 -15 25 -10 11 24 -8 76 -44 114 -77 315 -189
500 -279 74 -36 164 -87 198 -113 l64 -46 -7 43 c-3 24 -9 51 -11 61 -3 9 -3
17 1 17 3 0 49 -34 101 -75 91 -73 94 -77 94 -116 0 -54 14 -42 29 24 7 35 21
63 38 78 l25 24 -21 -42 -21 -42 64 47 c59 43 209 141 230 151 5 2 5 -2 1 -9
-9 -14 -4 -13 120 27 224 72 521 270 610 408 23 37 44 62 47 55 2 -7 22 24 43
68 23 47 44 77 49 72 5 -5 9 -55 9 -112z m-2539 -370 c4 -29 16 -87 26 -128
10 -41 24 -115 30 -165 6 -49 19 -129 30 -176 25 -117 112 -414 155 -528 19
-51 35 -97 35 -101 0 -4 -19 2 -42 14 -46 23 -132 27 -216 11 -44 -8 -44 -8
-98 50 -91 96 -154 250 -154 379 0 30 -3 37 -15 32 -12 -4 -15 4 -15 47 0 66
25 183 45 213 19 29 19 35 0 28 -24 -10 -17 8 17 43 l32 33 -33 0 c-18 0 -30
4 -26 10 3 5 11 7 18 5 7 -3 30 6 52 20 38 24 38 25 10 19 -16 -4 -39 -11 -50
-16 -34 -16 68 73 107 93 22 11 40 28 42 42 19 91 29 127 36 127 4 0 11 -24
14 -52z m2567 -85 c24 -36 66 -89 94 -116 l50 -50 -40 7 -40 7 45 -29 c30 -19
55 -46 74 -83 l30 -54 -40 31 c-57 44 -73 51 -42 18 49 -53 61 -98 61 -224 -1
-213 -61 -385 -185 -534 l-24 -29 -65 23 c-49 18 -86 24 -157 24 l-93 1 6 35
c4 19 32 121 62 225 87 300 110 388 128 492 9 54 27 129 40 168 12 38 26 89
30 113 4 23 10 42 15 42 4 0 27 -30 51 -67z m-889 -495 c-49 -86 -63 -150 -68
-297 -4 -132 -5 -136 -40 -200 -49 -89 -112 -165 -190 -228 -36 -29 -61 -53
-56 -53 24 0 157 107 225 181 42 46 80 80 84 76 4 -4 7 -38 7 -75 1 -100 -21
-138 -111 -183 -52 -27 -95 -40 -158 -49 -115 -16 -162 -10 -220 29 -26 18
-50 30 -53 27 -7 -8 -118 53 -139 76 -21 23 -23 126 -9 365 7 105 6 162 -4
218 -7 41 -11 78 -8 80 9 9 111 -88 141 -135 l29 -45 -4 64 -5 65 47 -51 c55
-60 83 -129 106 -256 26 -151 26 -150 40 -68 25 139 67 225 147 298 l42 38 3
-40 c4 -52 18 -65 25 -23 11 69 36 107 106 162 38 31 73 60 76 66 3 5 8 10 11
10 3 0 -8 -24 -24 -52z m-1444 -523 c50 -23 52 -26 52 -64 0 -32 -6 -45 -36
-73 -20 -18 -49 -57 -66 -85 -26 -47 -34 -53 -63 -53 -96 0 -132 124 -58 203
l28 29 -32 -16 c-63 -31 -90 -115 -59 -177 9 -17 16 -34 16 -36 0 -10 -38 0
-56 15 -64 51 -58 156 12 211 17 14 21 21 12 21 -22 0 -66 -37 -83 -70 -19
-37 -19 -97 0 -134 20 -38 13 -43 -30 -23 -25 12 -37 26 -46 56 -32 106 50
200 176 201 17 0 37 5 45 10 30 19 132 11 188 -15z m2220 -26 c30 -10 31 -12
15 -25 -10 -7 -13 -14 -7 -14 17 0 54 -75 54 -111 0 -63 -51 -119 -108 -119
-11 0 -26 19 -40 51 -17 35 -40 63 -78 92 -40 31 -56 51 -60 74 -8 43 -1 60
28 66 35 8 159 -1 196 -14z m158 -63 c29 -29 34 -40 34 -82 -1 -52 -12 -74
-47 -92 -35 -19 -46 -15 -29 10 9 12 16 32 15 43 0 16 -3 14 -14 -10 -7 -17
-22 -38 -34 -49 l-20 -18 20 38 c23 47 23 55 -1 124 -14 41 -16 57 -7 62 24
15 50 7 83 -26z"/>
<path d="M2660 4229 l0 -314 -58 -1 c-94 -3 -118 -20 -25 -20 l78 1 3 -42 3
-42 -37 10 c-42 12 -115 4 -199 -22 -32 -10 -60 -17 -62 -15 -9 8 36 51 80 76
29 16 48 30 44 30 -5 0 10 21 34 48 61 68 82 122 77 192 -9 129 -126 209 -260
178 l-53 -13 85 -5 c48 -4 98 -13 115 -22 84 -45 117 -136 80 -225 -15 -35
-155 -183 -174 -183 -5 0 -13 21 -16 48 -11 81 -15 97 -35 129 -24 40 -73 52
-119 29 -37 -19 -42 -31 -6 -14 32 14 78 -4 93 -38 16 -34 5 -54 -30 -54 -36
0 -75 -20 -107 -54 -39 -41 -112 -84 -156 -91 -25 -4 -56 -1 -82 8 -57 19 -55
11 3 -14 38 -17 57 -20 114 -14 62 6 71 5 100 -17 23 -16 45 -23 80 -23 l49 0
-62 -61 c-34 -33 -75 -80 -92 -105 -60 -90 -91 -123 -149 -161 -32 -21 -54
-38 -47 -38 18 0 93 40 126 68 27 22 30 23 33 7 3 -11 16 8 37 51 44 89 90
142 173 197 80 54 172 86 263 94 59 5 69 3 88 -16 22 -22 23 -22 36 -4 20 27
159 23 237 -6 123 -47 243 -166 319 -316 33 -67 39 -74 33 -42 l-7 39 30 -16
c38 -19 133 -55 133 -50 0 2 -30 19 -67 38 -75 38 -87 49 -158 151 -27 39 -71
91 -97 116 l-47 47 31 6 c17 3 45 17 62 30 29 22 36 23 87 13 62 -11 116 -4
145 18 18 14 17 14 -9 5 -71 -25 -138 -3 -214 72 -42 41 -61 53 -95 57 -39 6
-43 9 -46 37 -4 42 38 78 83 70 28 -5 29 -5 11 9 -22 17 -54 19 -88 6 -32 -12
-76 -96 -85 -161 l-8 -53 -33 28 c-37 31 -100 112 -125 162 -23 43 -21 95 3
143 36 71 111 105 218 98 61 -4 64 -3 37 8 -75 32 -191 8 -247 -52 -74 -80
-65 -174 30 -306 30 -42 32 -49 13 -39 -12 7 -50 14 -84 15 l-62 3 -5 306 c-3
168 -8 309 -12 313 -5 4 -8 -134 -8 -307z m-387 -296 c-7 -2 -21 -2 -30 0 -10
3 -4 5 12 5 17 0 24 -2 18 -5z m817 -3 c18 -12 2 -12 -25 0 -13 6 -15 9 -5 9
8 0 22 -4 30 -9z m-245 -49 c42 -20 127 -101 90 -86 -82 32 -183 40 -238 19
-14 -5 -17 0 -17 33 0 22 3 43 7 46 14 14 119 6 158 -12z m-560 0 c3 -6 -4
-15 -15 -21 -16 -8 -20 -8 -20 3 0 25 23 36 35 18z m760 -9 c0 -18 -20 -15
-23 4 -3 10 1 15 10 12 7 -3 13 -10 13 -16z"/>
<path d="M3540 4035 c17 -25 33 -45 36 -45 3 0 -9 20 -26 45 -17 25 -33 45
-36 45 -3 0 9 -20 26 -45z"/>
<path d="M1702 3946 c-41 -29 -48 -36 -36 -36 5 0 25 13 44 30 42 35 38 38 -8
6z"/>
<path d="M2518 3743 c7 -3 16 -2 19 1 4 3 -2 6 -13 5 -11 0 -14 -3 -6 -6z"/>
<path d="M2865 3730 c32 -11 61 -18 63 -16 5 5 -89 36 -107 35 -9 0 11 -9 44
-19z"/>
<path d="M2412 3713 c-35 -14 -61 -27 -59 -29 2 -2 37 10 78 26 40 16 67 29
59 29 -8 0 -43 -12 -78 -26z"/>
<path d="M3416 3705 c9 -53 29 -91 73 -140 20 -22 49 -56 65 -75 l28 -35 -21
39 c-12 21 -40 60 -62 86 -22 26 -51 74 -65 106 -23 55 -24 56 -18 19z"/>
<path d="M1921 3705 c-3 -37 -38 -101 -85 -154 -55 -62 -91 -116 -101 -151 -5
-17 3 -10 23 20 16 25 57 76 91 114 62 70 87 122 78 166 -3 20 -5 21 -6 5z"/>
<path d="M2668 3693 c-5 -21 -13 -23 -65 -23 -147 0 -217 -118 -144 -245 31
-54 77 -99 154 -152 68 -47 65 -69 -20 -132 -104 -77 -199 -122 -270 -128 -86
-8 -143 14 -239 92 -152 125 -193 155 -209 155 -31 0 -65 -50 -65 -94 0 -23 5
-48 10 -56 7 -11 10 -8 10 16 0 31 15 54 35 54 6 0 27 -32 46 -72 27 -58 57
-95 151 -190 120 -122 163 -151 246 -164 36 -6 45 -12 68 -53 48 -82 92 -130
132 -141 20 -5 95 -10 165 -10 160 0 179 8 272 122 54 66 79 88 126 111 42 20
71 43 103 85 25 31 68 76 95 100 35 29 60 63 82 110 58 123 94 155 101 90 l4
-33 12 28 c28 66 6 145 -48 167 -39 16 -46 9 -24 -25 17 -27 17 -27 -13 -51
-17 -13 -67 -59 -110 -102 -178 -177 -287 -181 -501 -21 -107 79 -108 92 -11
155 116 74 158 135 159 229 0 95 -69 155 -177 155 -56 0 -62 2 -65 23 l-3 22
-7 -22z m113 -103 c10 -6 19 -16 19 -22 0 -7 -33 -9 -110 -6 -85 4 -114 2
-130 -9 -26 -18 -26 1 0 27 17 17 33 20 111 20 50 0 99 -5 110 -10z m-206
-143 c-9 -23 -33 -29 -58 -15 -22 13 -22 13 6 16 16 2 31 10 34 18 3 9 9 12
15 6 5 -5 6 -16 3 -25z m262 3 c21 0 24 -2 13 -15 -18 -22 -47 -18 -61 7 -10
18 -9 20 6 15 9 -4 28 -7 42 -7z m-180 -564 c6 -65 14 -120 17 -124 3 -3 6 52
6 123 l0 128 49 -7 c27 -3 72 -13 100 -22 l51 -15 0 -117 c0 -131 -13 -167
-69 -197 -40 -20 -217 -21 -265 -1 -39 16 -81 68 -90 112 -7 31 9 192 19 202
9 9 139 41 155 39 12 -2 18 -29 27 -121z m-516 97 c13 -16 12 -17 -3 -4 -10 7
-18 15 -18 17 0 8 8 3 21 -13z m958 -15 c-21 -41 -59 -87 -82 -100 -25 -13
-25 -13 47 75 43 52 53 59 35 25z m-800 -59 c45 -51 44 -65 -3 -28 -26 21 -63
80 -49 78 5 -1 28 -23 52 -50z m616 -81 c-16 -22 -16 -22 -9 17 9 53 18 66 22
33 2 -15 -4 -38 -13 -50z m-482 12 c6 -35 6 -35 -8 -10 -8 14 -14 34 -15 45 0
30 17 5 23 -35z"/>
<path d="M1560 3580 c-6 -11 -8 -20 -6 -20 3 0 10 9 16 20 6 11 8 20 6 20 -3
0 -10 -9 -16 -20z"/>
<path d="M3735 3523 c13 -30 18 -271 6 -253 -8 12 -11 6 -11 -23 0 -35 2 -38
23 -32 43 13 46 24 36 111 -9 79 -44 214 -55 214 -4 0 -3 -8 1 -17z"/>
<path d="M1518 3473 c-20 -33 -23 -52 -25 -153 -2 -126 4 -115 32 55 8 50 17
100 21 113 9 33 -1 27 -28 -15z"/>
<path d="M1534 3315 c-7 -19 -14 -49 -13 -67 1 -29 2 -27 14 17 7 28 16 58 20
68 4 9 4 17 1 17 -4 0 -14 -16 -22 -35z"/>
<path d="M2365 3340 c-3 -5 -1 -10 4 -10 6 0 11 5 11 10 0 6 -2 10 -4 10 -3 0
-8 -4 -11 -10z"/>
<path d="M2990 3340 c0 -5 5 -10 11 -10 5 0 7 5 4 10 -3 6 -8 10 -11 10 -2 0
-4 -4 -4 -10z"/>
<path d="M3653 3230 c0 -41 2 -58 4 -37 2 20 2 54 0 75 -2 20 -4 3 -4 -38z"/>
<path d="M3697 3170 c-10 -52 -63 -158 -104 -208 -19 -23 -58 -56 -86 -72 -57
-33 -52 -38 14 -15 92 33 154 106 184 220 13 47 15 71 8 87 -9 21 -10 21 -16
-12z"/>
<path d="M1567 3151 c-13 -64 -8 -143 14 -187 37 -77 128 -142 248 -178 82
-24 80 -20 -9 26 -155 79 -227 170 -239 301 -6 63 -7 68 -14 38z"/>
<path d="M1482 2860 c54 -104 216 -230 318 -245 l35 -5 -35 14 c-134 52 -228
127 -323 256 -11 16 -10 9 5 -20z"/>
<path d="M3570 2754 c-36 -19 -54 -32 -40 -28 34 9 97 41 105 54 8 14 9 14
-65 -26z"/>
<path d="M3157 2693 c-8 -15 -20 -53 -27 -83 -18 -78 -62 -171 -116 -248 -43
-60 -48 -63 -56 -43 -7 21 -11 20 -88 -39 -44 -33 -80 -58 -80 -55 0 3 9 23
20 45 29 56 25 58 -21 11 -44 -44 -50 -45 -54 -9 -1 13 -3 27 -4 32 0 5 -11
-3 -22 -18 -12 -15 -25 -24 -30 -19 -11 11 -29 127 -29 187 l0 49 23 -21 c34
-32 39 -27 9 8 -33 37 -50 38 -58 4 -7 -27 1 -154 13 -208 l6 -29 -32 19 c-18
10 -58 41 -89 69 -31 27 -52 43 -46 35 6 -8 28 -37 48 -64 20 -27 35 -51 32
-53 -9 -10 -76 39 -115 83 -27 31 -43 61 -50 95 -15 67 -14 92 2 83 6 -4 4 2
-6 12 -15 17 -19 17 -28 4 -15 -23 -3 -101 24 -159 14 -28 22 -51 18 -51 -15
0 -100 91 -124 133 -14 23 -39 78 -58 122 -18 44 -39 90 -47 103 -17 27 -37
30 -23 3 6 -10 26 -61 45 -113 59 -165 92 -215 182 -276 45 -31 195 -84 219
-78 13 4 29 -4 47 -21 l27 -26 20 24 20 24 -9 -35 c-13 -46 -13 -46 8 -27 9 9
50 29 89 45 69 28 72 29 61 8 -11 -21 -11 -21 10 -2 12 10 19 22 17 27 -3 4
-1 10 4 14 12 7 6 -26 -9 -56 l-12 -22 28 20 c105 75 184 175 224 281 22 56
62 233 55 240 -2 2 -10 -9 -18 -25z"/>
<path d="M1460 2673 c0 -25 43 -131 69 -172 41 -63 95 -113 126 -116 38 -5
160 -84 249 -164 43 -39 81 -69 84 -67 2 3 -30 45 -72 93 -43 48 -109 135
-147 192 -38 57 -69 102 -69 99 0 -16 41 -120 57 -144 l18 -29 -40 24 c-104
63 -153 110 -226 220 -27 40 -49 69 -49 64z"/>
<path d="M3550 2585 c-8 -9 -41 -38 -74 -63 -41 -31 -57 -40 -52 -26 4 10 10
25 13 32 3 7 -18 -9 -46 -37 -62 -60 -121 -96 -199 -123 l-57 -19 65 5 c50 3
82 14 145 45 88 45 185 117 211 156 19 30 15 55 -6 30z"/>
<path d="M2880 2498 c-12 -22 -12 -22 6 -6 10 10 15 20 12 24 -4 3 -12 -5 -18
-18z"/>
<path d="M3760 2493 c0 -6 -17 -32 -37 -59 -20 -27 -27 -40 -14 -30 28 25 65
85 57 93 -3 4 -6 2 -6 -4z"/>
<path d="M3349 2254 c-16 -17 -18 -23 -7 -19 9 4 19 13 22 21 3 9 11 12 17 8
8 -4 9 -3 5 4 -9 16 -9 16 -37 -14z"/>
<path d="M3624 1959 c-28 -32 -121 -102 -184 -138 -64 -37 -29 -31 43 7 53 29
176 136 166 146 -3 3 -14 -3 -25 -15z"/>
<path d="M1247 1425 c-5 -22 -10 -49 -12 -59 -5 -27 12 -113 32 -161 23 -55
93 -152 144 -200 l42 -40 -52 68 c-91 121 -131 219 -140 347 -6 76 -8 81 -14
45z"/>
<path d="M3871 1477 c54 -155 -5 -362 -142 -499 -54 -54 -55 -56 -20 -39 93
48 181 185 201 316 13 79 7 135 -22 212 -25 69 -40 78 -17 10z"/>
<path d="M2260 656 c0 -3 28 -26 63 -52 34 -26 54 -39 44 -28 -19 23 -107 88
-107 80z"/>
</g>
</svg>